<svg width="157" height="118" viewBox="0 0 114 120" fill="none" xmlns="http://www.w3.org/2000/svg">
<path d="M92.0912 33.4458H104.682C108.399 33.4458 111.409 36.302 111.409 39.8283V90.2994C111.409 93.8257 108.399 96.6819 104.682 96.6819H8.94779C5.23113 96.6819 2.2207 93.8257 2.2207 90.2994V39.8283C2.2207 36.302 5.23113 33.4458 8.94779 33.4458H26.3897" fill="white"/>
<path d="M2.2207 79.2265V39.8283C2.2207 36.302 5.23113 33.4458 8.94779 33.4458H26.3897" stroke="black" stroke-width="4" stroke-linecap="round" stroke-linejoin="round"/>
<path d="M92.0912 33.4458H104.682C108.399 33.4458 111.409 36.302 111.409 39.8283V90.2994C111.409 93.8257 108.399 96.6819 104.682 96.6819H8.94779C5.23113 96.6819 2.2207 93.8257 2.2207 90.2994V85.4804" stroke="black" stroke-width="4" stroke-linecap="round" stroke-linejoin="round"/>
<path d="M43.2246 109.44V96.6885H70.404V109.44" fill="white"/>
<path d="M43.2246 109.44V96.6885H70.404V109.44" stroke="black" stroke-width="4" stroke-linecap="round" stroke-linejoin="round"/>
<path d="M70.4045 109.439H76.2684C81.0052 109.439 84.8503 113.088 84.8503 117.582H28.7793C28.7793 113.088 32.6244 109.439 37.3612 109.439H43.2251" fill="white"/>
<path d="M70.4045 109.439H76.2684C81.0052 109.439 84.8503 113.088 84.8503 117.582H28.7793C28.7793 113.088 32.6244 109.439 37.3612 109.439H43.2251" stroke="black" stroke-width="4" stroke-linecap="round" stroke-linejoin="round"/>
<path d="M24.3994 51.5032V5.76993C24.3994 3.6853 26.1757 2 28.3729 2H79.3147L97.5271 19.2794V79.084C97.5271 81.1686 95.7508 82.8539 93.5536 82.8539H73.8646" fill="white"/>
<path d="M97.5268 66.9482V79.077C97.5268 81.1616 95.7505 82.8469 93.5533 82.8469H73.8643" stroke="black" stroke-width="2" stroke-linecap="round" stroke-linejoin="round"/>
<path d="M24.3994 51.5032V5.76993C24.3994 3.6853 26.1757 2 28.3729 2H79.3147L97.5271 19.2794V56.9382" stroke="black" stroke-width="4" stroke-linecap="round" stroke-linejoin="round"/>
<path d="M79.3154 19.2794H97.5278L79.3154 2V19.2794Z" fill="#03B2CF"/>
<path d="M79.3154 19.2794H97.5278L79.3154 2V19.2794Z" stroke="black" stroke-width="4" stroke-linecap="round" stroke-linejoin="round"/>
<path d="M56.1367 12.3013H71.9593" stroke="black" stroke-miterlimit="10"/>
<path d="M56.1367 12.3013H71.9593" stroke="black" stroke-width="2" stroke-linecap="round" stroke-linejoin="round"/>
<path d="M56.1367 24.2339H89.708" stroke="black" stroke-width="2" stroke-linecap="round" stroke-linejoin="round"/>
<path d="M49.9102 36.1733H89.7091" stroke="black" stroke-width="2" stroke-linecap="round" stroke-linejoin="round"/>
<path d="M47.6621 21.3236C47.3411 22.7991 45.9643 23.9091 44.3164 23.9091H35.335C33.4446 23.9091 31.918 22.4607 31.918 20.6671V12.1458C31.918 10.3522 33.4446 8.90381 35.335 8.90381H44.3164C46.2068 8.90381 47.7334 10.3522 47.7334 12.1458V16.1053" fill="white"/>
<path d="M47.6621 21.3236C47.3411 22.7991 45.9643 23.9091 44.3164 23.9091H35.335C33.4446 23.9091 31.918 22.4607 31.918 20.6671V12.1458C31.918 10.3522 33.4446 8.90381 35.335 8.90381H44.3164C46.2068 8.90381 47.7334 10.3522 47.7334 12.1458V16.1053" stroke="#492354" stroke-miterlimit="10"/>
<path d="M47.6621 21.3236C47.3411 22.7991 45.9643 23.9091 44.3164 23.9091H35.335C33.4446 23.9091 31.918 22.4607 31.918 20.6671V12.1458C31.918 10.3522 33.4446 8.90381 35.335 8.90381H44.3164C46.2068 8.90381 47.7334 10.3522 47.7334 12.1458V16.1053" stroke="black" stroke-width="2" stroke-linecap="round" stroke-linejoin="round"/>
<path d="M42.3979 48.4646L36.7765 42.5153C35.7849 41.4662 34.3724 40.8706 32.8886 40.8706H18.5998C15.7178 40.8706 13.3779 43.0906 13.3779 45.825V84.3704C13.3779 87.1048 15.7178 89.3248 18.5998 89.3248H75.7551C78.6371 89.3248 80.977 87.1048 80.977 84.3704V55.0772C80.977 52.3428 78.6371 50.1229 75.7551 50.1229H46.2857C44.8019 50.1229 43.3895 49.5272 42.3979 48.4782" fill="#03B2CF"/>
<path d="M66.9457 89.3176H75.7629C78.6449 89.3176 80.9848 87.0976 80.9848 84.3632V55.07C80.9848 52.3357 78.6449 50.1157 75.7629 50.1157H46.2936C44.8097 50.1157 43.3973 49.5201 42.4057 48.471L36.7843 42.5216C35.7927 41.4726 34.3803 40.877 32.8964 40.877H18.6076C15.7256 40.877 13.3857 43.097 13.3857 45.8313V84.3767C13.3857 87.1111 15.7256 89.3311 18.6076 89.3311H50.8235" stroke="black" stroke-width="2" stroke-linecap="round" stroke-linejoin="round"/>
<path d="M59.9394 65.6358C60.0179 65.0876 60.0607 64.5393 60.0607 63.9843C60.0607 60.343 56.9504 57.3853 53.1053 57.3853C50.1306 57.3853 47.5981 59.1585 46.6065 61.656C45.6149 59.1653 43.0825 57.3853 40.1077 57.3853C36.2698 57.3853 33.1523 60.3362 33.1523 63.9843C33.1523 64.5393 33.188 65.0876 33.2594 65.6358" stroke="black" stroke-width="2" stroke-linecap="round" stroke-linejoin="round"/>
<path d="M37.9463 75.4229C41.8128 80.093 46.6066 83.0507 46.6066 83.0507C46.6066 83.0507 51.1865 79.9779 55.003 75.4229" stroke="black" stroke-width="2" stroke-linecap="round" stroke-linejoin="round"/>
<path d="M21.0605 70.7592H37.6036L40.343 64.4512L44.0311 74.1434L47.6907 67.2397L50.4372 70.7592H72.7229" stroke="black" stroke-width="2" stroke-linecap="round" stroke-linejoin="round"/>
</svg>
