<?xml version="1.0" encoding="UTF-8" standalone="no"?>
<!-- Created with Inkscape (http://www.inkscape.org/) -->

<svg
   version="1.1"
   id="svg2"
   width="246.66667"
   height="186.66667"
   viewBox="0 0 246.66667 186.66667"
   xmlns="http://www.w3.org/2000/svg"
   xmlns:svg="http://www.w3.org/2000/svg">
  <defs
     id="defs6">
    <clipPath
       clipPathUnits="userSpaceOnUse"
       id="clipPath16">
      <path
         d="M 0,140 H 185 V 0 H 0 Z"
         id="path14" />
    </clipPath>
  </defs>
  <g
     id="g8"
     transform="matrix(1.3333333,0,0,-1.3333333,0,186.66667)">
    <g
       id="g10">
      <g
         id="g12"
         clip-path="url(#clipPath16)">
        <g
           id="g18"
           transform="translate(37.1759,104.6693)">
          <path
             d="m 0,0 h 119.184 c 8.87,0 16.062,-6.997 16.062,-15.629 v -5.436 c 0,-8.632 -7.192,-15.629 -16.062,-15.629 L 0,-36.694 c -8.871,0 -16.062,6.997 -16.062,15.629 v 5.436 C -16.062,-6.997 -8.871,0 0,0"
             style="fill:#e8e8e8;fill-opacity:1;fill-rule:nonzero;stroke:none"
             id="path20" />
        </g>
        <g
           id="g22"
           transform="translate(48.8551,67.975)">
          <path
             d="m 0,0 h 93.107 c 7.815,0 14.151,-6.997 14.151,-15.629 v -5.436 c 0,-8.632 -6.336,-15.629 -14.151,-15.629 H 0 c -7.815,0 -14.151,6.997 -14.151,15.629 v 5.436 C -14.151,-6.997 -7.815,0 0,0"
             style="fill:#e8e8e8;fill-opacity:1;fill-rule:nonzero;stroke:none"
             id="path24" />
        </g>
        <g
           id="g26"
           transform="translate(40.8202,127.0121)">
          <path
             d="m 0,0 c 3.378,0 6.116,-2.738 6.116,-6.116 0,-3.377 -2.738,-6.115 -6.116,-6.115 -3.378,0 -6.116,2.738 -6.116,6.115 C -6.116,-2.738 -3.378,0 0,0"
             style="fill:#e8e8e8;fill-opacity:1;fill-rule:nonzero;stroke:none"
             id="path28" />
        </g>
        <g
           id="g30"
           transform="translate(152.0357,126.2576)">
          <path
             d="m 0,0 c 2.666,0 4.827,-2.161 4.827,-4.827 0,-2.665 -2.161,-4.826 -4.827,-4.826 -2.666,0 -4.827,2.161 -4.827,4.826 C -4.827,-2.161 -2.666,0 0,0"
             style="fill:#e8e8e8;fill-opacity:1;fill-rule:nonzero;stroke:none"
             id="path32" />
        </g>
        <g
           id="g34"
           transform="translate(166.3057,22.0301)">
          <path
             d="m 0,0 c 1.716,0 3.108,-1.391 3.108,-3.108 0,-1.716 -1.392,-3.107 -3.108,-3.107 -1.716,0 -3.108,1.391 -3.108,3.107 C -3.108,-1.391 -1.716,0 0,0"
             style="fill:#e8e8e8;fill-opacity:1;fill-rule:nonzero;stroke:none"
             id="path36" />
        </g>
        <g
           id="g38"
           transform="translate(18.7402,52.7355)">
          <path
             d="m 0,0 c 1.716,0 3.108,-1.391 3.108,-3.108 0,-1.716 -1.392,-3.107 -3.108,-3.107 -1.716,0 -3.108,1.391 -3.108,3.107 C -3.108,-1.391 -1.716,0 0,0"
             style="fill:#e8e8e8;fill-opacity:1;fill-rule:nonzero;stroke:none"
             id="path40" />
        </g>
        <g
           id="g42"
           transform="translate(45.2236,18.9949)">
          <path
             d="m 0,0 c 1.716,0 3.108,-1.391 3.108,-3.108 0,-1.716 -1.392,-3.107 -3.108,-3.107 -1.716,0 -3.108,1.391 -3.108,3.107 C -3.108,-1.391 -1.716,0 0,0"
             style="fill:#e8e8e8;fill-opacity:1;fill-rule:nonzero;stroke:none"
             id="path44" />
        </g>
        <g
           id="g46"
           transform="translate(54.6729,29.7512)">
          <path
             d="M 0,0 2.462,10.131 7.32,6.49 l 3.619,-5.71 0.82,-7.745 v -6.966 l -4.313,4.433 -7.154,6.089 z"
             style="fill:#ffffff;fill-opacity:1;fill-rule:nonzero;stroke:none"
             id="path48" />
        </g>
        <g
           id="g50"
           transform="translate(84.7522,117.1733)">
          <path
             d="m 0,0 5.171,-5.473 4.104,-11.944 1.381,-13.86 -1.381,-13.034 1.381,-60.832 H -3.576 l -5.488,66.646 -7.795,-2.292 -2.981,4.137 -1.675,1.706 -10.752,-2.188 -4.154,3.588 0.973,4.32 15.751,4.482 9.754,18.004 3.638,5.422 z"
             style="fill:#ffffff;fill-opacity:1;fill-rule:nonzero;stroke:none"
             id="path52" />
        </g>
        <g
           id="g54"
           transform="translate(80.4698,133.0638)">
          <path
             d="m 0,0 c -3.745,0 -7.006,-2.791 -7.494,-6.602 -0.528,-4.134 2.406,-7.929 6.541,-8.457 2.003,-0.257 3.985,0.283 5.583,1.518 1.597,1.235 2.618,3.019 2.874,5.022 v 0 C 8.033,-4.384 5.099,-0.59 0.964,-0.062 0.64,-0.02 0.318,0 0,0 m 0.029,-19.224 c -0.498,0 -1,0.032 -1.503,0.096 -6.378,0.816 -10.904,6.668 -10.088,13.046 0.815,6.379 6.668,10.906 13.046,10.089 6.379,-0.815 10.904,-6.668 10.089,-13.046 v 0 c -0.395,-3.09 -1.97,-5.841 -4.434,-7.747 -2.063,-1.595 -4.544,-2.438 -7.11,-2.438"
             style="fill:#000000;fill-opacity:1;fill-rule:nonzero;stroke:none"
             id="path56" />
        </g>
        <g
           id="g58"
           transform="translate(87.8705,10.282)">
          <path
             d="m 0,0 c -1.064,0 -1.964,0.822 -2.043,1.9 l -3.794,51.41 c -0.084,1.13 0.764,2.113 1.894,2.196 1.13,0.087 2.113,-0.765 2.196,-1.894 L 2.047,2.202 C 2.131,1.072 1.283,0.089 0.153,0.006 0.102,0.002 0.05,0 0,0"
             style="fill:#000000;fill-opacity:1;fill-rule:nonzero;stroke:none"
             id="path60" />
        </g>
        <g
           id="g62"
           transform="translate(80.6154,10.282)">
          <path
             d="m 0,0 c -1.067,0 -1.967,0.825 -2.044,1.905 l -4.341,60.981 c -0.08,1.13 0.771,2.111 1.9,2.192 1.124,0.082 2.111,-0.771 2.192,-1.9 L 2.048,2.197 C 2.128,1.067 1.278,0.086 0.148,0.005 0.098,0.002 0.049,0 0,0"
             style="fill:#000000;fill-opacity:1;fill-rule:nonzero;stroke:none"
             id="path64" />
        </g>
        <g
           id="g66"
           transform="translate(75.4686,86.5186)">
          <path
             d="m 0,0 c -1.037,0 -1.927,0.784 -2.037,1.838 l -1.457,13.915 c -0.002,0.019 -0.004,0.038 -0.005,0.056 -0.228,2.964 0.282,5.969 1.476,8.691 l 0.328,0.747 c 0.455,1.037 1.664,1.509 2.702,1.054 C 2.044,25.847 2.516,24.637 2.061,23.6 L 1.733,22.853 C 0.813,20.754 0.417,18.437 0.589,16.151 L 2.042,2.265 C 2.16,1.138 1.342,0.129 0.216,0.011 0.143,0.004 0.071,0 0,0"
             style="fill:#000000;fill-opacity:1;fill-rule:nonzero;stroke:none"
             id="path68" />
        </g>
        <g
           id="g70"
           transform="translate(95.8272,10.2822)">
          <path
             d="m 0,0 c -1.1,0 -2.011,0.873 -2.049,1.981 l -2.136,62.621 c -0.038,1.132 0.848,2.082 1.98,2.12 1.125,0.039 2.081,-0.847 2.12,-1.98 L 2.051,2.121 C 2.09,0.989 1.203,0.04 0.071,0.001 0.048,0 0.024,0 0,0"
             style="fill:#000000;fill-opacity:1;fill-rule:nonzero;stroke:none"
             id="path72" />
        </g>
        <g
           id="g74"
           transform="translate(54.539,25.3219)">
          <path
             d="m 0,0 c -0.125,0 -0.251,0.011 -0.378,0.035 -1.114,0.208 -1.848,1.279 -1.641,2.392 l 9.845,52.778 c 0.208,1.113 1.282,1.846 2.392,1.64 1.114,-0.208 1.848,-1.279 1.64,-2.393 L 2.014,1.675 C 1.83,0.689 0.968,0 0,0"
             style="fill:#000000;fill-opacity:1;fill-rule:nonzero;stroke:none"
             id="path76" />
        </g>
        <g
           id="g78"
           transform="translate(67.8935,76.3846)">
          <path
             d="m 0,0 c -2.935,0 -5.548,2.05 -6.176,5.006 -0.371,1.745 0.016,3.575 1.062,5.021 1.047,1.445 2.664,2.384 4.438,2.577 l 16.412,1.727 -1.887,12.26 c -0.172,1.119 0.596,2.167 1.716,2.339 1.114,0.173 2.166,-0.595 2.339,-1.715 l 2.214,-14.387 c 0.085,-0.554 -0.061,-1.119 -0.403,-1.564 -0.342,-0.444 -0.852,-0.729 -1.41,-0.787 L -0.24,8.525 C -0.865,8.457 -1.419,8.136 -1.791,7.621 -2.164,7.107 -2.296,6.481 -2.164,5.859 -1.919,4.708 -0.816,3.948 0.347,4.129 0.379,4.134 0.412,4.138 0.444,4.142 l 20.969,2.255 c 1.317,0.133 2.487,0.83 3.225,1.913 0.738,1.083 0.957,2.428 0.603,3.689 -0.019,0.067 -0.034,0.135 -0.046,0.203 L 22.136,29.74 c -0.403,2.271 -1.48,4.34 -3.114,5.978 l -2.166,2.17 c -0.8,0.802 -0.799,2.101 0.003,2.901 0.801,0.8 2.1,0.799 2.9,-0.003 l 2.167,-2.171 c 2.229,-2.234 3.699,-5.057 4.25,-8.165 L 29.219,13.002 C 29.86,10.603 29.429,8.057 28.028,6.001 26.607,3.914 24.351,2.571 21.839,2.317 L 0.926,0.068 C 0.615,0.022 0.306,0 0,0"
             style="fill:#000000;fill-opacity:1;fill-rule:nonzero;stroke:none"
             id="path80" />
        </g>
        <g
           id="g82"
           transform="translate(52.8513,78.6765)">
          <path
             d="m 0,0 c -2.79,0 -5.326,1.857 -6.091,4.651 -0.472,1.721 -0.191,3.57 0.77,5.074 0.94,1.47 2.453,2.489 4.166,2.808 l 13.718,3.799 8.402,16.849 c 0.505,1.014 1.736,1.426 2.75,0.92 1.014,-0.506 1.426,-1.737 0.92,-2.751 L 15.826,13.685 C 15.567,13.164 15.099,12.778 14.538,12.623 L -0.154,8.555 C -0.222,8.536 -0.292,8.52 -0.362,8.508 -0.989,8.403 -1.523,8.051 -1.865,7.515 -2.207,6.98 -2.303,6.348 -2.135,5.735 -1.824,4.599 -0.678,3.903 0.472,4.153 0.53,4.165 0.588,4.175 0.647,4.183 l 9.805,1.24 c 1.125,0.141 2.15,-0.654 2.292,-1.778 0.142,-1.123 -0.653,-2.15 -1.777,-2.292 L 1.241,0.123 C 0.825,0.04 0.41,0 0,0"
             style="fill:#000000;fill-opacity:1;fill-rule:nonzero;stroke:none"
             id="path84" />
        </g>
        <g
           id="g86"
           transform="translate(63.5631,82.2009)">
          <path
             d="M 0,0 C -0.108,0 -0.217,0.008 -0.326,0.026 L -7.163,1.12 c -1.118,0.179 -1.88,1.231 -1.701,2.349 0.179,1.118 1.23,1.882 2.349,1.701 L 0.322,4.076 C 1.44,3.897 2.202,2.846 2.023,1.727 1.861,0.719 0.99,0 0,0"
             style="fill:#000000;fill-opacity:1;fill-rule:nonzero;stroke:none"
             id="path88" />
        </g>
        <g
           id="g90"
           transform="translate(145.1158,97.2538)">
          <path
             d="m 0,0 h -2.286 c -1.133,0 -2.051,0.918 -2.051,2.051 0,1.133 0.918,2.051 2.051,2.051 H 0 C 1.133,4.102 2.051,3.184 2.051,2.051 2.051,0.918 1.133,0 0,0"
             style="fill:#34bbda;fill-opacity:1;fill-rule:nonzero;stroke:none"
             id="path92" />
        </g>
        <g
           id="g94"
           transform="translate(133.0891,97.2538)">
          <path
             d="m 0,0 h -28.783 c -1.133,0 -2.051,0.918 -2.051,2.051 0,1.133 0.918,2.051 2.051,2.051 H 0 C 1.133,4.102 2.051,3.184 2.051,2.051 2.051,0.918 1.133,0 0,0"
             style="fill:#34bbda;fill-opacity:1;fill-rule:nonzero;stroke:none"
             id="path96" />
        </g>
        <g
           id="g98"
           transform="translate(123.8212,85.8967)">
          <path
             d="m 0,0 h -11.925 c -1.133,0 -2.051,0.918 -2.051,2.051 0,1.133 0.918,2.051 2.051,2.051 H 0 C 1.133,4.102 2.051,3.184 2.051,2.051 2.051,0.918 1.133,0 0,0"
             style="fill:#34bbda;fill-opacity:1;fill-rule:nonzero;stroke:none"
             id="path100" />
        </g>
        <g
           id="g102"
           transform="translate(51.802,2.6254)">
          <path
             d="m 0,0 c -5.202,0 -9.434,4.232 -9.434,9.434 0,5.202 4.232,9.434 9.434,9.434 5.202,0 9.434,-4.232 9.434,-9.434 C 9.434,4.232 5.202,0 0,0"
             style="fill:#000000;fill-opacity:1;fill-rule:nonzero;stroke:none"
             id="path104" />
        </g>
        <g
           id="g106"
           transform="translate(123.7211,17.392)">
          <path
             d="m 0,0 c -2.94,0 -5.332,-2.392 -5.332,-5.332 0,-2.941 2.392,-5.333 5.332,-5.333 2.94,0 5.332,2.392 5.332,5.333 C 5.332,-2.392 2.94,0 0,0 m 0,-14.767 c -5.202,0 -9.434,4.233 -9.434,9.435 0,5.202 4.232,9.434 9.434,9.434 5.202,0 9.434,-4.232 9.434,-9.434 0,-5.202 -4.232,-9.435 -9.434,-9.435"
             style="fill:#000000;fill-opacity:1;fill-rule:nonzero;stroke:none"
             id="path108" />
        </g>
        <g
           id="g110"
           transform="translate(109.5013,10.0087)">
          <path
             d="m 0,0 h -43.48 c -1.132,0 -2.05,0.918 -2.05,2.051 0,6.71 -5.459,12.169 -12.169,12.169 -2.788,0 -5.411,-0.917 -7.585,-2.652 -0.885,-0.707 -2.176,-0.562 -2.882,0.323 -0.707,0.886 -0.562,2.176 0.323,2.883 2.867,2.288 6.469,3.548 10.144,3.548 8.277,0 15.131,-6.213 16.142,-14.22 h 39.635 c 1.011,8.007 7.864,14.22 16.142,14.22 3.948,0 7.756,-1.433 10.722,-4.033 0.852,-0.747 0.937,-2.043 0.191,-2.894 C 24.386,10.543 23.09,10.458 22.238,11.204 20.021,13.149 17.173,14.22 14.22,14.22 7.51,14.22 2.051,8.761 2.051,2.051 2.051,0.918 1.133,0 0,0"
             style="fill:#000000;fill-opacity:1;fill-rule:nonzero;stroke:none"
             id="path112" />
        </g>
        <g
           id="g114"
           transform="translate(66.0239,10.0083)">
          <path
             d="m 0,0 c -0.14,0 -0.281,0.014 -0.423,0.044 -1.109,0.233 -1.819,1.32 -1.586,2.429 4.23,20.156 -7.393,26.052 -7.89,26.293 -1.014,0.493 -1.447,1.714 -0.961,2.732 0.485,1.017 1.695,1.455 2.717,0.976 0.161,-0.076 3.981,-1.909 7.099,-6.718 C 4.021,17.942 3.41,8.323 2.005,1.63 1.802,0.664 0.95,0 0,0"
             style="fill:#000000;fill-opacity:1;fill-rule:nonzero;stroke:none"
             id="path116" />
        </g>
        <g
           id="g118"
           transform="translate(80.4698,133.0638)">
          <path
             d="m 0,0 c -3.745,0 -7.006,-2.791 -7.494,-6.602 -0.528,-4.134 2.406,-7.929 6.541,-8.457 2.003,-0.257 3.985,0.283 5.583,1.518 1.597,1.235 2.618,3.019 2.874,5.022 v 0 C 8.033,-4.384 5.099,-0.59 0.964,-0.062 0.64,-0.02 0.318,0 0,0"
             style="fill:#ffffff;fill-opacity:1;fill-rule:nonzero;stroke:none"
             id="path120" />
        </g>
        <g
           id="g122"
           transform="translate(123.7211,17.392)">
          <path
             d="m 0,0 c -2.94,0 -5.332,-2.392 -5.332,-5.332 0,-2.941 2.392,-5.333 5.332,-5.333 2.94,0 5.332,2.392 5.332,5.333 C 5.332,-2.392 2.94,0 0,0"
             style="fill:#34bbda;fill-opacity:1;fill-rule:nonzero;stroke:none"
             id="path124" />
        </g>
        <g
           id="g126"
           transform="translate(51.802,17.392)">
          <path
             d="m 0,0 c -2.94,0 -5.332,-2.392 -5.332,-5.332 0,-2.941 2.392,-5.333 5.332,-5.333 2.94,0 5.332,2.392 5.332,5.333 C 5.332,-2.392 2.94,0 0,0"
             style="fill:#34bbda;fill-opacity:1;fill-rule:nonzero;stroke:none"
             id="path128" />
        </g>
      </g>
    </g>
  </g>
</svg>
