<svg width="61" height="49" viewBox="0 0 61 49" fill="none" xmlns="http://www.w3.org/2000/svg">
<path d="M18.6038 10.5267V20.8117L17.8475 21.568V38.9617H40.9888V21.7192L29.645 10.3755L24.0488 16.2742V10.5267H18.6038Z" fill="white"/>
<path d="M45.0119 24.4115L29.9777 9.98226C29.9474 9.95201 29.9172 9.92176 29.8567 9.89151C29.5844 9.71001 29.2517 9.74026 29.0097 9.98226L24.4722 14.3383V13.219H24.5024C24.8957 13.219 25.1982 12.9165 25.1982 12.5233V10.4663C25.1982 10.073 24.8957 9.77051 24.5024 9.77051H18.5129C18.1197 9.77051 17.8172 10.073 17.8172 10.4663V12.5233C17.8172 12.9165 18.1197 13.219 18.5129 13.219H18.5432V20.0253L13.9754 24.4115C13.8544 24.5325 13.7637 24.714 13.7637 24.8955C13.7637 25.077 13.8242 25.2585 13.9452 25.3795C14.1872 25.6518 14.6712 25.6518 14.9132 25.4098L19.6927 20.8118L19.7834 20.721C19.7834 20.721 19.8137 20.6908 19.8137 20.6605L19.8439 20.5698V20.5395C19.8439 20.5395 19.8439 20.5093 19.8742 20.479V20.4488V20.4185V20.3883V20.358V13.1585C20.1162 13.0375 20.2674 12.7955 20.2674 12.5233C20.2674 12.13 19.9649 11.8275 19.5717 11.8275H19.1179V11.162H23.7462V11.8275H21.9009C21.5077 11.8275 21.2052 12.13 21.2052 12.5233C21.2052 12.9165 21.5077 13.219 21.9009 13.219H23.0202V15.6693L21.1447 17.4843C20.8724 17.7565 20.8724 18.18 21.1144 18.4523C21.3564 18.7245 21.8404 18.7245 22.0824 18.4825L29.4029 11.4343L44.0742 25.4098C44.1952 25.5308 44.3767 25.5913 44.5582 25.5913C44.7397 25.5913 44.9212 25.5005 45.0422 25.3795C45.1632 25.2585 45.2237 25.077 45.2237 24.8955C45.2237 24.714 45.1632 24.5325 45.0119 24.4115Z" fill="black"/>
<path d="M29.9777 14.0357C29.7055 13.7635 29.282 13.7635 29.0097 14.0357L21.901 20.9025C21.78 21.0235 21.6892 21.205 21.6892 21.3865C21.6892 21.568 21.7497 21.7495 21.8707 21.8705C21.9917 21.9915 22.1732 22.0822 22.3547 22.0822C22.5362 22.0822 22.7177 22.0217 22.8387 21.9007L29.4937 15.518L32.186 18.0892C32.4582 18.3615 32.912 18.3312 33.154 18.059C33.4262 17.7867 33.396 17.333 33.1237 17.091L29.9777 14.0357Z" fill="black"/>
<path d="M32.6094 38.3265H18.7852V24.8955C18.7852 24.5022 18.4827 24.1997 18.0894 24.1997C17.6962 24.1997 17.3937 24.5022 17.3937 24.8955V39.0222C17.3937 39.4155 17.6962 39.718 18.0894 39.718H32.6094C33.0027 39.718 33.3052 39.4155 33.3052 39.0222C33.3052 38.629 33.0027 38.3265 32.6094 38.3265Z" fill="black"/>
<path d="M40.898 24.1997C40.5048 24.1997 40.2023 24.5022 40.2023 24.8955V38.3265H38.0545C37.6613 38.3265 37.3588 38.629 37.3588 39.0222C37.3588 39.4155 37.6613 39.718 38.0545 39.718H40.898C41.2913 39.718 41.5938 39.4155 41.5938 39.0222V24.8955C41.5938 24.5325 41.2913 24.1997 40.898 24.1997Z" fill="black"/>
<path d="M34.6362 39.6574C35.0037 39.6574 35.3017 39.3595 35.3017 38.9919C35.3017 38.6244 35.0037 38.3264 34.6362 38.3264C34.2687 38.3264 33.9707 38.6244 33.9707 38.9919C33.9707 39.3595 34.2687 39.6574 34.6362 39.6574Z" fill="black"/>
<path d="M29.4938 35.1806C29.3728 35.1806 29.2518 35.1503 29.1611 35.1201C29.1308 35.0898 28.1628 34.6663 27.1646 33.9403C26.5596 33.5168 26.0755 33.0631 25.7125 32.6093C25.1983 31.9741 24.9563 31.3086 24.9563 30.6431V26.1963C24.9563 25.8031 25.2588 25.4401 25.652 25.3796C26.3478 25.2888 26.6503 25.0771 26.983 24.8048C27.225 24.6233 27.5276 24.4116 27.9208 24.2603C28.3746 24.0788 28.8586 24.0183 29.4636 24.0183C30.0686 24.0183 30.5526 24.1091 31.0063 24.2603C31.3996 24.4116 31.702 24.6233 31.944 24.8048C32.3071 25.0468 32.6095 25.2586 33.3053 25.3796C33.6986 25.4401 34.0011 25.7728 34.0011 26.1963V30.6431C34.0011 31.3086 33.7591 31.9438 33.2448 32.6093C32.8818 33.0631 32.3978 33.5168 31.7928 33.9403C30.7945 34.6663 29.8266 35.0898 29.7963 35.1201C29.7358 35.1503 29.6148 35.1806 29.4938 35.1806ZM26.1663 26.5291V30.6733C26.1663 31.0666 26.3478 31.4598 26.6503 31.8833C26.9225 32.2463 27.346 32.6093 27.8603 33.0026C28.5258 33.4866 29.1913 33.8193 29.4938 33.9706C29.7963 33.8193 30.4618 33.4866 31.1273 33.0026C31.6416 32.6396 32.0348 32.2463 32.3373 31.8833C32.6701 31.4598 32.8213 31.0666 32.8213 30.6733V26.5291C32.0651 26.3778 31.6416 26.0753 31.2786 25.8333C31.0668 25.6821 30.855 25.5308 30.5828 25.4401C30.2803 25.3191 29.9476 25.2586 29.4636 25.2586C29.0098 25.2586 28.6468 25.3191 28.3443 25.4401C28.072 25.5308 27.8603 25.6821 27.6485 25.8333C27.346 26.0451 26.9225 26.3476 26.1663 26.5291Z" fill="black"/>
<path d="M27.3762 27.6483V30.28C27.3762 30.522 27.4972 30.7943 27.6787 31.0363C27.8602 31.2783 28.1325 31.49 28.435 31.732C28.8585 32.0345 29.282 32.2463 29.4635 32.337C29.645 32.2463 30.0685 32.0345 30.492 31.732C30.8247 31.49 31.0667 31.248 31.2482 31.0363C31.46 30.764 31.5507 30.522 31.5507 30.28V27.6483C31.0667 27.5575 30.7945 27.3458 30.5827 27.1945C30.4315 27.1038 30.3105 27.013 30.1592 26.9525C29.9777 26.892 29.7357 26.8315 29.4635 26.8315C29.161 26.8315 28.9492 26.8618 28.7677 26.9525C28.5862 27.013 28.4652 27.1038 28.3442 27.1945C28.1325 27.3458 27.8602 27.5273 27.3762 27.6483Z" fill="#01A9CE"/>
</svg>
