<svg width="52" height="40" viewBox="0 0 52 40" fill="none" xmlns="http://www.w3.org/2000/svg">
<path d="M32.7122 19.7617C32.7122 19.7336 32.7122 19.7336 32.7122 19.7617C32.5721 19.7336 32.46 19.6776 32.3198 19.6495C29.6849 18.9768 29.3766 18.5003 29.3766 17.5472C29.3766 17.0146 29.5167 15.9495 29.6008 15.5851C30.1895 15.501 30.666 15.529 31.0584 14.5479C31.4789 13.4828 31.1705 12.81 30.8342 12.4456C31.1705 10.3433 30.8342 8.7175 29.8811 7.54021C28.5637 5.97048 26.5174 5.83032 25.9288 5.83032C25.3401 5.83032 23.2939 5.94245 21.9764 7.54021C21.0234 8.74553 20.687 10.3713 21.0234 12.4736C20.6589 12.838 20.3786 13.5108 20.7991 14.576C21.1915 15.557 21.6681 15.529 22.2567 15.6131C22.3688 15.9495 22.481 17.0427 22.481 17.5753C22.481 18.5283 22.1726 19.0048 19.5377 19.6776C16.2581 20.4624 15.5293 21.7799 15.5293 24.3307V29.0399V29.2081C15.5293 31.815 17.071 33.9173 19.6498 33.9173H25.0878H28.4796H32.2077C34.7865 33.9173 36.3282 31.815 36.3282 29.2081V24.3307C36.3282 21.892 35.7115 20.5746 32.7122 19.7617Z" fill="white"/>
<path d="M21.1073 10.7079L30.7499 11.7731L30.4696 8.57754L21.9202 7.76465L21.1073 10.7079Z" fill="#01A9CE"/>
<path d="M24.5831 8.04482L28.059 6.16675L30.2173 8.2971L29.1241 8.5774L24.5831 8.04482Z" fill="#01A9CE"/>
<path d="M23.7983 34.4219C23.6862 34.4219 23.6021 34.3939 23.49 34.3378C23.2377 34.1696 23.1816 33.8332 23.3498 33.609L29.2363 24.7793C29.4045 24.527 29.7408 24.4709 29.9651 24.6391C30.2174 24.8073 30.2734 25.1437 30.1052 25.3679L24.2188 34.1976C24.1347 34.3658 23.9665 34.4219 23.7983 34.4219Z" fill="black"/>
<path d="M31.8152 22.9574C31.7311 22.9574 31.647 22.9294 31.5629 22.8733C31.3106 22.7331 31.2266 22.3968 31.3667 22.1445L32.4319 20.2664C32.572 20.0141 32.9084 19.93 33.1607 20.0702C33.413 20.2104 33.4971 20.5467 33.3569 20.799L32.2917 22.6771C32.1796 22.8733 31.9834 22.9574 31.8152 22.9574Z" fill="black"/>
<path d="M20.8831 10.9321C20.8551 10.848 20.8271 10.7639 20.8551 10.6517C20.8831 10.3714 21.1635 10.1472 21.4438 10.1752L26.5174 10.6798C26.7977 10.7078 27.0219 10.9881 26.9939 11.2684C26.9658 11.5487 26.6855 11.773 26.4052 11.745L21.3316 11.2404C21.1354 11.2404 20.9672 11.1002 20.8831 10.9321Z" fill="black"/>
<path d="M27.8348 11.745C27.8068 11.661 27.7787 11.5769 27.8068 11.4647C27.8348 11.1844 28.1151 10.9602 28.3954 10.9882L30.5258 11.2405C30.8061 11.2685 31.0303 11.5488 31.0023 11.8291C30.9743 12.1094 30.694 12.3337 30.4136 12.3057L28.2833 12.0534C28.0871 12.0254 27.9189 11.9132 27.8348 11.745Z" fill="black"/>
<path d="M30.4696 24.2746C30.7637 24.2746 31.0022 24.0362 31.0022 23.7421C31.0022 23.4479 30.7637 23.2095 30.4696 23.2095C30.1755 23.2095 29.937 23.4479 29.937 23.7421C29.937 24.0362 30.1755 24.2746 30.4696 24.2746Z" fill="black"/>
<path d="M33.0485 19.7338C32.9084 19.7057 32.7682 19.6497 32.628 19.6217C29.853 18.9209 29.5166 18.3603 29.5166 17.3792C29.5166 16.8466 29.6568 16.2579 29.7689 15.8935C30.3856 15.8095 30.8901 15.2769 31.3106 14.2678C31.7591 13.1465 31.4507 12.4457 31.0583 12.0813C31.3947 9.89493 31.0583 8.15702 30.0492 6.95169C28.6757 5.29787 26.5173 5.15771 25.9006 5.15771C25.2839 5.15771 23.1256 5.29787 21.7521 6.95169C20.7429 8.15702 20.4066 9.89493 20.7429 12.0813C20.3785 12.4457 20.0702 13.1745 20.4907 14.2678C20.8831 15.3049 21.3877 15.8375 22.0324 15.8935C22.1445 16.2579 22.2846 16.8466 22.2846 17.3792C22.2846 18.3603 21.9763 18.9209 19.1732 19.6217C15.7254 20.4906 14.9406 21.8641 14.9406 24.5271V27.4423C14.9406 27.7226 15.1648 27.9468 15.4451 27.9468C15.7254 27.9468 15.9497 27.7226 15.9497 27.4423V24.5271C15.9497 22.3406 16.3982 21.3596 19.3975 20.6027C21.9763 19.958 23.2657 19.4254 23.2657 17.3792C23.2657 16.314 22.8733 15.2208 22.8453 15.1928C22.7612 14.9966 22.565 14.8564 22.3687 14.8564C22.3407 14.8564 22.3127 14.8564 22.2566 14.8564C22.1445 14.8844 21.8362 14.9405 21.4157 13.8753C21.0793 13.0064 21.4437 12.7541 21.4717 12.7541C21.696 12.67 21.8081 12.4177 21.7801 12.1935C21.696 11.801 21.668 11.4086 21.6399 11.0442C21.6399 11.0442 21.668 10.1192 21.6399 10.0071C21.696 9.30629 21.8362 8.71764 22.1165 8.21308L29.881 9.05401C29.909 9.05401 29.909 9.05401 29.9371 9.05401C29.9371 9.05401 29.9371 9.05401 29.9651 9.05401C30.1053 9.61463 30.1613 10.2593 30.1053 10.9881L29.9931 11.9973C29.9931 12.0533 29.9651 12.1094 29.9651 12.1935C29.909 12.4177 30.0492 12.67 30.2734 12.7541C30.2734 12.7541 30.6939 12.9783 30.3295 13.8753C29.909 14.9405 29.6007 14.8844 29.4886 14.8564C29.2363 14.8003 28.984 14.9405 28.8999 15.1928C28.8719 15.2488 28.4795 16.342 28.4795 17.3792C28.4795 18.6686 28.984 19.4535 29.825 19.7338L20.2104 25.4801V24.6952C20.2104 24.4149 19.9861 24.1907 19.7058 24.1907C19.4255 24.1907 19.2012 24.4149 19.2012 24.6952V26.1528L16.0618 28.5635L15.5572 28.8718C15.2769 29.0681 15.0246 29.3203 15.0246 29.6006C15.0246 29.6006 15.0246 29.6287 15.0246 29.6847C15.0246 32.4037 16.6785 34.6182 19.3694 34.6182H25.0877H28.6477H32.5159C35.2349 34.6182 36.8607 32.4037 36.8607 29.6847V24.5551C36.8607 21.9762 36.188 20.6308 33.0485 19.7338ZM24.6392 7.45625L22.9013 7.28806C24.0226 6.25092 25.5923 6.19486 25.9287 6.19486C26.0128 6.19486 26.237 6.19486 26.4893 6.22289L24.6673 7.42822L24.6392 7.45625ZM26.209 7.65246L27.8348 6.58729C28.3393 6.78351 28.8719 7.11988 29.2924 7.62443C29.4045 7.73656 29.4886 7.87671 29.5727 8.01687L26.209 7.65246ZM35.8236 29.7128C35.8236 31.8711 34.6463 33.6371 32.4879 33.6371H30.6659C31.0023 33.1886 31.2265 32.628 31.2265 32.0113C31.2265 30.5537 30.0492 29.3484 28.5916 29.3484H27.2181L26.5453 30.3855H28.5916C29.4886 30.3855 30.2174 31.1143 30.2174 32.0113C30.2174 32.9083 29.4886 33.6371 28.5916 33.6371H25.0597H24.443H23.2097H19.3414C17.2391 33.6371 16.0898 31.9272 16.0338 29.8249L19.9581 26.8817L31.0303 20.1823C31.0303 20.1823 31.0303 20.1823 31.0583 20.1542C31.3947 20.2944 31.7591 20.4345 32.1515 20.5467L33.1887 20.827C35.5713 21.5558 35.8516 22.5649 35.8516 24.5271V29.7128H35.8236Z" fill="black"/>
<path d="M33.7213 9.11L33.5531 9.27818C33.441 9.39031 33.441 9.58652 33.5531 9.72668C33.6091 9.78274 33.6932 9.81077 33.7773 9.81077C33.8614 9.81077 33.9455 9.78274 34.0016 9.72668L34.1698 9.55849C34.2819 9.44637 34.2819 9.25015 34.1698 9.11C34.0576 8.96984 33.8614 8.96984 33.7213 9.11Z" fill="black"/>
<path d="M34.6743 8.91377C34.7584 8.91377 34.8425 8.88574 34.8986 8.82968L35.0667 8.66149C35.1789 8.54937 35.1789 8.35315 35.0667 8.213C34.9546 8.10088 34.7584 8.10088 34.6182 8.213L34.4501 8.38118C34.3379 8.49331 34.3379 8.68952 34.4501 8.82968C34.5061 8.88574 34.5902 8.91377 34.6743 8.91377Z" fill="black"/>
<path d="M34.8986 9.10997C34.7864 8.99785 34.5902 8.99785 34.4501 9.10997C34.3379 9.2221 34.3379 9.41831 34.4501 9.55847L34.6182 9.72665C34.6743 9.78271 34.7584 9.81074 34.8425 9.81074C34.9266 9.81074 35.0107 9.78271 35.0667 9.72665C35.1789 9.61453 35.1789 9.41831 35.0667 9.27816L34.8986 9.10997Z" fill="black"/>
<path d="M34.0016 8.213C33.8895 8.10088 33.6932 8.10088 33.5531 8.213C33.441 8.32512 33.441 8.52134 33.5531 8.66149L33.7213 8.82968C33.7773 8.88574 33.8614 8.91377 33.9455 8.91377C34.0296 8.91377 34.1137 8.88574 34.1698 8.82968C34.2819 8.71755 34.2819 8.52134 34.1698 8.38118L34.0016 8.213Z" fill="black"/>
<path d="M18.3885 4.93348L18.1642 5.15773C17.996 5.32592 17.996 5.57819 18.1642 5.74638C18.2483 5.83047 18.3604 5.8585 18.4445 5.8585C18.5567 5.8585 18.6688 5.83047 18.7248 5.74638L18.9491 5.52213C19.1173 5.35395 19.1173 5.10167 18.9491 4.93348C18.8089 4.79333 18.5567 4.79333 18.3885 4.93348Z" fill="black"/>
<path d="M19.6498 4.68129C19.7619 4.68129 19.8741 4.65325 19.9301 4.56916L20.1544 4.34491C20.3226 4.17673 20.3226 3.92445 20.1544 3.75627C19.9862 3.58808 19.7339 3.58808 19.5657 3.75627L19.3415 3.98051C19.1733 4.1487 19.1733 4.40098 19.3415 4.56916C19.4536 4.65325 19.5377 4.68129 19.6498 4.68129Z" fill="black"/>
<path d="M19.9581 4.93351C19.7899 4.76533 19.5376 4.76533 19.3694 4.93351C19.2012 5.1017 19.2012 5.35398 19.3694 5.52216L19.5937 5.74641C19.6778 5.8305 19.7899 5.85853 19.874 5.85853C19.9861 5.85853 20.0982 5.8305 20.1543 5.74641C20.3225 5.57822 20.3225 5.32594 20.1543 5.15776L19.9581 4.93351Z" fill="black"/>
<path d="M18.7529 3.75627C18.5847 3.58808 18.3324 3.58808 18.1642 3.75627C17.996 3.92445 17.996 4.17673 18.1642 4.34491L18.3885 4.56916C18.4726 4.65325 18.5847 4.68129 18.6688 4.68129C18.7809 4.68129 18.893 4.65325 18.9491 4.56916C19.1173 4.40098 19.1173 4.1487 18.9491 3.98051L18.7529 3.75627Z" fill="black"/>
<path d="M31.8712 5.07351C31.9273 5.12957 32.0114 5.1576 32.0955 5.1576C32.1796 5.1576 32.2637 5.12957 32.3197 5.07351C32.4319 4.96139 32.4319 4.76517 32.3197 4.62502L32.2637 4.56896C32.1515 4.45683 31.9553 4.45683 31.8152 4.56896C31.703 4.68108 31.703 4.8773 31.8152 5.01745L31.8712 5.07351Z" fill="black"/>
<path d="M32.6 5.80227C32.6561 5.85833 32.7401 5.88636 32.8242 5.88636C32.9083 5.88636 32.9924 5.85833 33.0485 5.80227C33.1606 5.69015 33.1606 5.49393 33.0485 5.35378L32.9924 5.29772C32.8803 5.18559 32.6841 5.18559 32.5439 5.29772C32.4318 5.40984 32.4318 5.60606 32.5439 5.74621L32.6 5.80227Z" fill="black"/>
<path d="M32.0394 5.88636C32.1235 5.88636 32.2076 5.85833 32.2637 5.80227L32.3197 5.74621C32.4319 5.63409 32.4319 5.43787 32.3197 5.29772C32.2076 5.18559 32.0114 5.18559 31.8712 5.29772L31.8152 5.35378C31.703 5.4659 31.703 5.66212 31.8152 5.80227C31.8712 5.85833 31.9553 5.88636 32.0394 5.88636Z" fill="black"/>
<path d="M32.7682 5.1576C32.8523 5.1576 32.9364 5.12957 32.9924 5.07351L33.0485 5.01745C33.1606 4.90533 33.1606 4.70911 33.0485 4.56896C32.9364 4.45683 32.7401 4.45683 32.6 4.56896L32.5439 4.62502C32.4318 4.73714 32.4318 4.93336 32.5439 5.07351C32.6 5.12957 32.6841 5.1576 32.7682 5.1576Z" fill="black"/>
<path d="M17.0149 10.6797C17.0709 10.7358 17.155 10.7638 17.2391 10.7638C17.3232 10.7638 17.4073 10.7358 17.4634 10.6797C17.5755 10.5676 17.5755 10.3714 17.4634 10.2312L17.3793 10.1752C17.2671 10.063 17.0709 10.063 16.9308 10.1752C16.8186 10.2873 16.8186 10.4835 16.9308 10.6237L17.0149 10.6797Z" fill="black"/>
<path d="M17.7437 11.4085C17.7998 11.4645 17.8839 11.4926 17.968 11.4926C18.0521 11.4926 18.1362 11.4645 18.1922 11.4085C18.3043 11.2963 18.3043 11.1001 18.1922 10.96L18.1362 10.9039C18.024 10.7918 17.8278 10.7918 17.6877 10.9039C17.5475 11.016 17.5755 11.2123 17.6877 11.3524L17.7437 11.4085Z" fill="black"/>
<path d="M17.183 11.4926C17.2671 11.4926 17.3512 11.4645 17.4072 11.4085L17.4633 11.3524C17.5754 11.2403 17.5754 11.0441 17.4633 10.9039C17.3512 10.7918 17.1549 10.7918 17.0148 10.9039L16.9587 10.96C16.8466 11.0721 16.8466 11.2683 16.9587 11.4085C17.0148 11.4645 17.0989 11.4926 17.183 11.4926Z" fill="black"/>
<path d="M17.912 10.7639C17.9961 10.7639 18.0802 10.7358 18.1362 10.6798L18.1923 10.6237C18.3044 10.5116 18.3044 10.3154 18.1923 10.1752C18.0802 10.0351 17.8839 10.0631 17.7438 10.1752L17.6877 10.2313C17.5756 10.3434 17.5756 10.5396 17.6877 10.6798C17.7438 10.7358 17.8279 10.7639 17.912 10.7639Z" fill="black"/>
</svg>
