<svg width="245" height="185" viewBox="0 0 245 185" fill="none" xmlns="http://www.w3.org/2000/svg">
<path d="M117.872 52.1963C113.775 52.857 108.754 55.4998 105.054 59.1998C98.1825 66.0713 95.936 75.7177 98.1825 84.307L87.7432 94.7463V102.675L86.686 104.128H78.7575L75.4539 107.961V115.889L73.4717 116.286H65.5432L58.936 123.818L66.8646 132.671H80.0789L111 101.089C114.832 103.203 119.193 103.996 123.422 103.996C137.825 103.996 151.04 85.7605 146.811 69.3748C142.582 52.9891 127.915 49.5534 117.872 52.1963Z" fill="#01A9CE"/>
<path d="M80.0788 134.654H66.8645C66.3359 134.654 65.6752 134.389 65.4109 133.993L57.4824 125.139C56.8216 124.346 56.8216 123.157 57.4824 122.496L64.0895 114.964C64.4859 114.568 65.0145 114.304 65.6752 114.304H71.4895C72.5466 114.304 73.4716 113.379 73.4716 112.321V108.093C73.4716 107.564 73.6038 107.168 74.0002 106.771L77.3038 102.939C77.7002 102.543 78.2288 102.279 78.8895 102.279H83.7788C84.8359 102.279 85.7609 101.354 85.7609 100.296V95.1428C85.7609 94.6142 86.0252 94.0857 86.4216 93.6893L95.2752 84.8357C95.8038 84.3071 95.9359 83.6464 95.8038 82.9857C94.2181 74 97.1252 64.6178 103.732 58.1428C107.036 54.8393 111 52.4607 115.493 51.1393C116.682 50.7428 117.872 51.5357 118.004 52.725C118.268 53.7821 117.607 54.8393 116.55 55.1035C112.718 56.2928 109.282 58.275 106.507 61.05C100.429 67.1285 98.0502 75.9821 100.165 84.175L100.429 85.3643L90.2538 95.4071C89.8574 95.8035 89.5931 96.3321 89.5931 96.8607V103.071C89.5931 103.468 89.4609 103.996 89.1966 104.261L88.1395 105.714C87.7431 106.243 87.2145 106.507 86.5538 106.507H80.6074C79.9466 106.507 79.4181 106.771 79.0216 107.168L77.9645 108.489C77.7002 108.886 77.4359 109.282 77.4359 109.811V116.154C77.4359 117.079 76.7752 117.871 75.8502 118.136L73.6038 118.664C73.4716 118.664 73.3395 118.664 73.2074 118.664H67.3931C66.8645 118.664 66.2038 118.929 65.8074 119.325L62.7681 122.761C62.1074 123.554 62.1074 124.743 62.7681 125.404L66.9966 130.161C67.3931 130.557 67.9216 130.821 68.4502 130.821H78.0966C78.6252 130.821 79.1538 130.557 79.5502 130.161L109.415 99.9C110.075 99.2392 111 99.1071 111.793 99.5035C114.568 100.957 117.74 101.882 121.307 102.014C122.365 102.146 123.157 102.939 123.157 103.996C123.157 105.186 122.1 106.111 120.911 105.979C117.872 105.846 114.965 105.186 112.454 104.129C111.661 103.864 110.736 103.996 110.207 104.525L81.1359 133.993C81.1359 134.389 80.6074 134.654 80.0788 134.654Z" fill="#2D2D2B"/>
<path d="M76.1147 125.007C75.3218 124.214 75.3218 122.892 76.1147 122.1L103.468 94.746C104.261 93.9532 105.583 93.9532 106.375 94.746C107.168 95.5389 107.168 96.8603 106.375 97.6532L78.8897 125.007C78.0968 125.8 76.9075 125.8 76.1147 125.007Z" fill="#2D2D2B"/>
<path d="M128.443 152.89H140.204L148.925 142.715V98.8431C161.214 95.6717 167.821 85.6288 167.821 73.8681C167.821 59.4645 156.325 47.8359 141.921 47.8359C127.518 47.8359 115.625 59.4645 115.625 73.8681C115.625 83.5145 122.364 91.8395 128.443 96.4645V112.19L132.539 116.286V120.382L128.443 126.197V129.765L132.539 134.654V138.75L128.443 142.847V152.89Z" fill="white"/>
<path d="M140.204 155.004H128.443C127.254 155.004 126.461 154.079 126.461 153.022V142.715C126.461 142.186 126.725 141.657 127.122 141.261L130.029 138.354C130.425 137.957 130.69 137.429 130.69 136.9V136.107C130.69 135.579 130.557 135.182 130.161 134.786L126.857 130.954C126.593 130.557 126.329 130.161 126.329 129.632V126.065C126.329 125.668 126.461 125.272 126.725 124.875L130.029 120.118C130.293 119.722 130.425 119.325 130.425 118.929V117.872C130.425 117.343 130.161 116.815 129.764 116.418L126.989 113.643C126.593 113.247 126.329 112.718 126.329 112.19V98.4467C126.329 97.786 126.064 97.2574 125.536 96.861C119.589 91.8396 113.643 83.5145 113.643 73.8681C113.643 58.4074 126.329 45.7217 141.922 45.7217C157.382 45.7217 169.804 58.2753 169.804 73.8681C169.804 86.1574 163.197 95.8038 152.229 99.9003C151.436 100.165 150.907 100.957 150.907 101.882V142.715C150.907 143.243 150.775 143.64 150.379 144.036L141.657 154.211C141.393 154.74 140.732 155.004 140.204 155.004ZM132.54 150.907H138.354C139.014 150.907 139.543 150.643 139.94 150.247L146.415 142.582C146.679 142.186 146.943 141.79 146.943 141.261V98.8431C146.943 97.9181 147.604 97.1253 148.529 96.861C159.232 94.086 165.972 85.2324 165.972 73.8681C165.972 60.6538 155.268 49.8181 142.186 49.8181C128.575 49.9503 117.607 60.6538 117.607 73.8681C117.607 82.7217 124.082 90.6503 129.632 94.7467L130.425 95.4074V110.472C130.425 111 130.689 111.529 131.086 111.925L133.993 114.832C134.39 115.229 134.654 115.757 134.654 116.286V120.382C134.654 120.779 134.522 121.175 134.257 121.572L130.822 126.329C130.557 126.725 130.425 127.122 130.425 127.518V128.179C130.425 128.707 130.557 129.104 130.954 129.5L134.125 133.2C134.389 133.597 134.654 133.993 134.654 134.522V138.618C134.654 139.147 134.39 139.675 133.993 140.072L131.086 142.979C130.689 143.375 130.425 143.904 130.425 144.432V148.925C130.557 149.982 131.35 150.907 132.54 150.907Z" fill="#2D2D2B"/>
<path d="M140.732 140.732C139.543 140.732 138.75 139.807 138.75 138.75V108.092C138.75 106.903 139.675 106.11 140.732 106.11C141.921 106.11 142.714 107.035 142.714 108.092V138.617C142.714 139.807 141.789 140.732 140.732 140.732Z" fill="#2D2D2B"/>
<path d="M140.732 102.014C139.543 102.014 138.75 101.089 138.75 100.032C138.75 98.8427 139.675 98.0498 140.732 98.0498C141.921 98.0498 142.714 98.9748 142.714 100.032C142.714 101.089 141.789 102.014 140.732 102.014Z" fill="#2D2D2B"/>
<path d="M144.565 69.507C143.508 69.507 142.583 68.8463 142.45 67.7891C142.318 67.2606 142.45 66.5999 142.715 66.2034C144.829 61.5784 145.225 56.4249 143.904 51.1391C142.318 44.6641 137.825 39.2463 131.747 36.7356C124.215 33.6963 116.286 34.357 110.075 38.5856C103.865 42.682 100.165 49.5534 100.165 56.9534C100.165 57.482 100.033 58.0106 99.7683 58.407C98.9754 59.4641 97.654 59.5963 96.5969 58.8034C96.5969 58.8034 96.5969 58.8034 96.4647 58.6713C95.9362 58.2749 95.6719 57.6141 95.6719 56.9534C95.6719 47.9677 100.165 39.7749 107.565 34.7534C115.097 29.732 124.611 28.807 133.465 32.507C140.865 35.5463 146.283 42.0213 148.265 49.9499C149.85 56.2927 149.322 62.5034 146.679 68.0534C146.415 68.582 145.886 69.1106 145.358 69.2427H145.225C144.961 69.507 144.697 69.507 144.565 69.507Z" fill="#2D2D2B"/>
<path d="M142.714 73.4716C138.221 73.4716 134.521 69.7717 134.521 65.2788C134.521 60.7859 138.221 57.0859 142.714 57.0859C147.207 57.0859 150.907 60.7859 150.907 65.2788C150.907 69.7717 147.207 73.4716 142.714 73.4716Z" fill="white"/>
<path d="M142.715 75.4535C137.165 75.4535 132.54 70.8285 132.54 65.2785C132.54 59.7285 137.165 55.1035 142.715 55.1035C148.265 55.1035 152.89 59.7285 152.89 65.2785C152.89 70.8285 148.397 75.4535 142.715 75.4535ZM142.715 59.1999C139.411 59.1999 136.636 61.9749 136.636 65.2785C136.636 68.5821 139.411 71.3571 142.715 71.3571C146.018 71.3571 148.793 68.5821 148.793 65.2785C148.793 61.9749 146.15 59.1999 142.715 59.1999Z" fill="#2D2D2B"/>
</svg>
