<svg width="62" height="43" fill="none" xmlns="http://www.w3.org/2000/svg"><path d="M40.484 9.487h-17.47l-.283-.751.282-1.597.564-.94 1.409-.657h13.808l1.315.845.375 1.597v1.503ZM22.92 33.44h17.47l.282.75-.281 1.598-.564.939-1.409.658H24.61l-1.315-.846-.376-1.597V33.44Z" fill="#01A9CE" stroke="#000" stroke-width=".188"/><path fill="#fff" d="M22.731 9.394h17.847v24.047H22.731z"/><mask id="a" fill="#fff"><path fill-rule="evenodd" clip-rule="evenodd" d="M24.72 5.292A2.694 2.694 0 0 0 22.583 7.4c-.038.176-.04.722-.04 14.042 0 13.173.003 13.868.039 14.036.223 1.035.955 1.806 1.969 2.078l.22.058h13.988l.22-.058c1.014-.272 1.745-1.043 1.969-2.078.036-.168.038-.863.038-14.036 0-13.32-.002-13.866-.04-14.043a2.685 2.685 0 0 0-1.797-2.02c-.385-.128.085-.12-7.403-.118-5.604.001-6.896.007-7.026.03Zm13.975.67a1.95 1.95 0 0 1 1.001.517c.281.267.473.594.568.966.041.161.047.26.057.879l.01.697H23.198l.01-.697c.013-.79.03-.903.19-1.243.215-.46.61-.831 1.084-1.02.34-.136-.134-.128 7.264-.13 5.985-.002 6.78.002 6.95.031ZM27.927 7.17c-.196.088-.26.351-.124.513.108.128.27.163.416.09a.314.314 0 0 0 .173-.298.326.326 0 0 0-.465-.305Zm1.351.019c-.12.08-.162.156-.162.286 0 .13.043.205.162.287l.072.048h4.83l.071-.048c.12-.082.162-.157.162-.287 0-.13-.042-.205-.162-.286l-.071-.05h-4.83l-.072.05Zm11.049 14.253v11.75H23.203v-23.5h17.124v11.75ZM40.32 34.56c-.01.623-.015.717-.057.88a2.03 2.03 0 0 1-1.44 1.457l-.173.047H24.879l-.173-.047a1.997 1.997 0 0 1-.883-.502 2.016 2.016 0 0 1-.558-.956c-.041-.162-.047-.256-.056-.879l-.01-.697H40.33l-.01.697Zm-9.778-.04c-.451.145-.735.587-.66 1.028.035.202.11.351.253.5a.869.869 0 0 0 .574.28c.099.012.573.021 1.055.021.481 0 .956-.01 1.054-.02a.869.869 0 0 0 .575-.28.915.915 0 0 0-.283-1.479l-.146-.07-1.168-.003c-.901-.004-1.187.002-1.254.023Zm2.37.722c.05.056.063.09.063.17 0 .083-.012.11-.074.172l-.074.074h-2.127l-.073-.074c-.062-.062-.074-.089-.074-.17 0-.104.056-.2.138-.233.025-.01.52-.017 1.102-.014l1.055.004.064.07Z"/></mask><path fill-rule="evenodd" clip-rule="evenodd" d="M24.72 5.292A2.694 2.694 0 0 0 22.583 7.4c-.038.176-.04.722-.04 14.042 0 13.173.003 13.868.039 14.036.223 1.035.955 1.806 1.969 2.078l.22.058h13.988l.22-.058c1.014-.272 1.745-1.043 1.969-2.078.036-.168.038-.863.038-14.036 0-13.32-.002-13.866-.04-14.043a2.685 2.685 0 0 0-1.797-2.02c-.385-.128.085-.12-7.403-.118-5.604.001-6.896.007-7.026.03Zm13.975.67a1.95 1.95 0 0 1 1.001.517c.281.267.473.594.568.966.041.161.047.26.057.879l.01.697H23.198l.01-.697c.013-.79.03-.903.19-1.243.215-.46.61-.831 1.084-1.02.34-.136-.134-.128 7.264-.13 5.985-.002 6.78.002 6.95.031ZM27.927 7.17c-.196.088-.26.351-.124.513.108.128.27.163.416.09a.314.314 0 0 0 .173-.298.326.326 0 0 0-.465-.305Zm1.351.019c-.12.08-.162.156-.162.286 0 .13.043.205.162.287l.072.048h4.83l.071-.048c.12-.082.162-.157.162-.287 0-.13-.042-.205-.162-.286l-.071-.05h-4.83l-.072.05Zm11.049 14.253v11.75H23.203v-23.5h17.124v11.75ZM40.32 34.56c-.01.623-.015.717-.057.88a2.03 2.03 0 0 1-1.44 1.457l-.173.047H24.879l-.173-.047a1.997 1.997 0 0 1-.883-.502 2.016 2.016 0 0 1-.558-.956c-.041-.162-.047-.256-.056-.879l-.01-.697H40.33l-.01.697Zm-9.778-.04c-.451.145-.735.587-.66 1.028.035.202.11.351.253.5a.869.869 0 0 0 .574.28c.099.012.573.021 1.055.021.481 0 .956-.01 1.054-.02a.869.869 0 0 0 .575-.28.915.915 0 0 0-.283-1.479l-.146-.07-1.168-.003c-.901-.004-1.187.002-1.254.023Zm2.37.722c.05.056.063.09.063.17 0 .083-.012.11-.074.172l-.074.074h-2.127l-.073-.074c-.062-.062-.074-.089-.074-.17 0-.104.056-.2.138-.233.025-.01.52-.017 1.102-.014l1.055.004.064.07Z" fill="#000"/><path d="m24.72 5.292.134.739-.134-.74Zm-.997.409-.417-.626.416.626Zm-1.14 1.698-.735-.157.735.157Zm-.001 28.079.734-.159-.734.159Zm1.969 2.078.194-.726-.194.726Zm.22.058-.195.726.096.026h.098v-.752Zm13.988 0v.752h.099l.095-.026-.194-.726Zm.22-.058-.194-.726.194.726Zm1.969-2.078-.735-.159.735.159Zm-.001-28.079.734-.157-.734.157Zm-1.798-2.02.238-.712-.238.713Zm-7.403-.118v-.752.752Zm6.95.701.128-.74-.129.74Zm1 .517-.518.545.518-.545Zm.568.966.728-.186-.728.186Zm.057.879.751-.012-.751.012Zm.01.697v.751h.763l-.011-.763-.752.012Zm-17.133 0-.751-.012-.012.763h.763v-.751Zm.01-.697-.75-.012.75.012Zm.19-1.243-.68-.32.68.32Zm1.084-1.02.278.697-.278-.698Zm7.264-.13v.752-.752Zm-3.819 1.24.305.686-.305-.687Zm-.124.512.575-.484-.575.484Zm.416.09L27.88 7.1l.338.671Zm1.06-.584-.424-.622.423.622Zm0 .573-.424.62.423-.62Zm.07.048-.422.621.191.13h.232v-.75Zm4.83 0v.752h.232l.192-.13-.423-.622Zm.072-.048.423.62-.423-.62Zm0-.573.423-.622-.423.622Zm-.071-.05.423-.62-.192-.13h-.231v.75Zm-4.83 0v-.75h-.232l-.191.13.423.62Zm10.977 26.054v.751h.751v-.751h-.751Zm-17.124 0h-.751v.751h.751v-.751Zm0-23.502V8.94h-.751v.751h.751Zm17.124 0h.751V8.94h-.751v.751Zm-.006 24.87-.752-.012.752.011Zm-.057.878-.728-.187.728.187Zm-1.44 1.458.199.724-.199-.724Zm-.173.047v.752h.101l.098-.027-.199-.725Zm-13.772 0-.199.725.098.027h.1v-.752Zm-.173-.047-.2.724h.001l.199-.724Zm-.883-.502.52-.541-.52.541Zm-.558-.956.728-.186-.728.186Zm-.056-.879.751-.01-.751.01Zm-.01-.697v-.751h-.763l.011.762.752-.01Zm17.132 0 .751.011.011-.762h-.762v.751Zm-9.788.657-.23-.715.23.715Zm-.66 1.028-.74.127.74-.127Zm.253.5.543-.518-.543.518Zm.574.28.086-.746-.086.747Zm2.11 0-.087-.746.086.747Zm.574-.28-.544-.518.544.518Zm-.283-1.478.322-.679-.322.68Zm-.146-.07.321-.678-.151-.072h-.167l-.003.75Zm-1.168-.003.003-.752-.003.752Zm1.116.745-.56.5.56-.5Zm-.01.342.53.531-.53-.53Zm-.075.074v.751h.312l.22-.22-.532-.531Zm-2.127 0-.531.531.22.22h.311v-.751Zm-.073-.074-.532.531.532-.53Zm.064-.403.286.695-.286-.695Zm1.102-.014-.003.751.003-.751Zm1.055.004.56-.5-.222-.25-.334-.001-.004.751ZM24.586 4.552a3.42 3.42 0 0 0-1.28.523l.833 1.251c.23-.153.476-.252.715-.295l-.268-1.479Zm-1.28.523a3.445 3.445 0 0 0-1.458 2.167l1.47.315c.112-.524.404-.954.821-1.23l-.833-1.252Zm-1.458 2.167c-.027.128-.033.273-.038.538-.006.292-.01.799-.012 1.71-.005 1.825-.006 5.293-.006 11.952h1.503c0-6.66 0-10.126.005-11.948.003-.913.007-1.408.012-1.685.006-.302.014-.292.006-.252l-1.47-.315Zm-.056 14.2c0 6.586 0 10.054.006 11.897.002.92.006 1.44.011 1.74.005.27.01.428.038.558l1.47-.318c.01.046 0 .054-.005-.266-.005-.288-.009-.797-.012-1.718-.005-1.84-.005-5.306-.005-11.893h-1.503Zm.055 14.195c.282 1.307 1.22 2.3 2.51 2.645l.388-1.452c-.74-.198-1.264-.749-1.429-1.51l-1.469.317Zm2.51 2.645.22.058.388-1.452-.22-.058-.388 1.452Zm.413.084h6.995v-1.503H24.77v1.503Zm6.995 0h6.994v-1.503h-6.994v1.503Zm7.188-.026.22-.059-.389-1.451-.22.058.39 1.452Zm.22-.059c1.29-.344 2.227-1.337 2.51-2.644l-1.47-.318c-.164.762-.69 1.313-1.428 1.51l.388 1.453Zm2.51-2.644c.027-.13.033-.288.037-.557.006-.301.01-.821.012-1.741.005-1.843.005-5.311.005-11.897h-1.502c0 6.587 0 10.053-.006 11.893-.002.921-.006 1.43-.011 1.718-.006.32-.015.312-.005.266l1.47.318Zm.054-14.195c0-6.66 0-10.127-.005-11.952-.003-.911-.006-1.418-.012-1.71-.005-.265-.011-.41-.038-.538l-1.47.315c-.009-.04 0-.05.005.252.006.277.01.772.012 1.685.005 1.822.006 5.287.006 11.948h1.502Zm-.056-14.2a3.437 3.437 0 0 0-2.294-2.575l-.476 1.426a1.934 1.934 0 0 1 1.3 1.464l1.47-.315Zm-2.294-2.575c-.041-.014-.184-.075-.403-.105a7.975 7.975 0 0 0-.86-.042c-.876-.014-2.64-.012-6.379-.01l.001 1.502c3.75 0 5.495-.003 6.353.01.44.008.607.019.682.03.036.004-.021-.01.13.04l.476-1.425Zm-7.642-.158c-2.801.001-4.527.003-5.568.008-.52.002-.873.005-1.105.009a12 12 0 0 0-.273.007c-.048.002-.136.005-.213.02l.268 1.478c-.044.008-.064.006.006.003l.237-.006c.222-.003.567-.006 1.086-.009 1.038-.004 2.76-.006 5.563-.007V4.51Zm6.821 2.194a1.2 1.2 0 0 1 .612.321l1.036-1.09a2.7 2.7 0 0 0-1.39-.712l-.258 1.48Zm.612.321c.18.17.298.373.358.606l1.456-.37a2.747 2.747 0 0 0-.778-1.325l-1.035 1.09Zm.358.606c.014.058.023.056.033.705l1.503-.023c-.009-.59-.012-.787-.08-1.053l-1.456.371Zm.033.705.011.697 1.503-.023-.01-.697-1.504.023Zm.762-.066h-8.566v1.503h8.566V8.27Zm-8.566 0h-8.567v1.503h8.567V8.27Zm-7.815.763.01-.697-1.503-.023-.01.697 1.503.023Zm.01-.697c.006-.409.014-.58.03-.688a.767.767 0 0 1 .088-.247l-1.36-.638c-.094.2-.172.387-.213.659-.035.23-.042.51-.047.891l1.502.023Zm.118-.935c.134-.285.385-.523.682-.642l-.557-1.395a2.8 2.8 0 0 0-1.486 1.399l1.361.638Zm.682-.642c.154-.061.066-.03.074-.032.06-.01.214-.021.646-.029.84-.015 2.561-.013 6.266-.014V5.18c-3.693 0-5.435 0-6.292.014-.417.008-.671.02-.849.047-.23.035-.386.115-.402.122l.557 1.395Zm6.986-.075c2.993-.001 4.686 0 5.652.004.484.002.78.005.964.01.205.004.227.01.204.006l.258-1.48a3.107 3.107 0 0 0-.427-.03c-.2-.004-.508-.007-.992-.01-.97-.004-2.668-.004-5.66-.003l.001 1.503Zm-4.124-.2c-.635.283-.865 1.125-.394 1.684l1.15-.968a.43.43 0 0 1 .093.377.418.418 0 0 1-.239.281l-.61-1.373Zm-.394 1.684c.324.385.86.512 1.328.277L27.881 7.1a.418.418 0 0 1 .497.098l-1.15.968Zm1.328.277c.39-.197.587-.579.587-.969H27.64a.448.448 0 0 1 .24-.374l.676 1.343Zm.587-.969c0-.785-.792-1.315-1.521-.991l.61 1.373a.424.424 0 0 1-.4-.036.42.42 0 0 1-.192-.346h1.503Zm-.288-.908c-.11.075-.253.192-.357.377a1.064 1.064 0 0 0-.133.531h1.503a.447.447 0 0 1-.061.208c-.054.094-.116.133-.106.127l-.846-1.243Zm-.49.908c0 .149.025.34.133.531.104.185.248.302.357.377l.846-1.243c-.01-.006.052.033.106.127.057.102.06.19.06.208h-1.502Zm.49.908.072.048.846-1.242-.072-.049-.846 1.243Zm.495.179h2.415V7.059H29.35v1.503Zm2.415 0h2.415V7.059h-2.415v1.503Zm2.838-.13.071-.05-.845-1.242-.072.049.846 1.242Zm.071-.05a1.13 1.13 0 0 0 .357-.376c.109-.192.134-.382.134-.531h-1.503c0-.019.004-.106.061-.208.053-.094.115-.133.106-.127l.845 1.243Zm.49-.907c0-.149-.024-.34-.133-.531a1.13 1.13 0 0 0-.357-.377L33.83 7.81c.01.006-.053-.033-.106-.127a.447.447 0 0 1-.061-.208h1.503Zm-.49-.908-.071-.048-.846 1.242.072.049.845-1.243Zm-.494-.179h-2.415v1.503h2.415V6.388Zm-2.415 0H29.35v1.503h2.415V6.388Zm-2.838.13-.072.05.846 1.242.072-.049-.846-1.242Zm10.648 14.924v11.75h1.503v-11.75h-1.503Zm.752 11h-8.562v1.502h8.562v-1.503Zm-8.562 0h-8.562v1.502h8.562v-1.503Zm-7.81.75v-11.75h-1.503v11.75h1.502Zm0-11.75V9.692h-1.503v11.75h1.502Zm-.752-11h8.562V8.94h-8.562v1.503Zm8.562 0h8.562V8.94h-8.562v1.503Zm7.81-.75v11.75h1.503V9.692h-1.503Zm-.006 24.857c-.009.652-.018.647-.033.703l1.456.374c.069-.267.072-.462.08-1.055l-1.503-.022Zm-.033.704a1.279 1.279 0 0 1-.91.919l.397 1.45a2.782 2.782 0 0 0 1.97-1.996l-1.457-.373Zm-.91.919-.174.047.398 1.45.173-.048-.398-1.45Zm.025.02h-6.886v1.504h6.886v-1.503Zm-6.886 0h-6.886v1.504h6.886v-1.503Zm-6.688.027-.173-.047-.397 1.45.173.047.397-1.45Zm-.173-.047a1.247 1.247 0 0 1-.56-.318L23.3 36.937c.346.333.743.557 1.206.684l.397-1.45Zm-.56-.318a1.265 1.265 0 0 1-.35-.601l-1.456.373c.128.5.39.952.764 1.31l1.042-1.082Zm-.35-.602c-.015-.056-.024-.05-.034-.703l-1.503.022c.009.593.012.788.08 1.055l1.456-.373Zm-.034-.703-.01-.697-1.503.022.01.697 1.503-.022Zm-.761.066h8.566v-1.503h-8.566v1.503Zm8.566 0h8.566v-1.503h-8.566v1.503Zm7.815-.763-.01.697 1.502.022.01-.697-1.502-.022Zm-9.267-.047c-.774.249-1.315 1.027-1.17 1.87l1.481-.255a.13.13 0 0 1 .024-.09.233.233 0 0 1 .125-.094l-.46-1.431Zm-1.17 1.87c.06.35.204.635.449.892l1.087-1.037a.22.22 0 0 1-.039-.05.213.213 0 0 1-.016-.06l-1.481.255Zm.449.892c.288.302.624.461 1.033.508l.171-1.493c-.055-.006-.072-.015-.074-.016 0 0-.013-.005-.043-.036l-1.087 1.037Zm1.033.508c.152.018.68.026 1.14.026v-1.503a35.279 35.279 0 0 1-.888-.012l-.08-.004-.172 1.493Zm1.14.026c.46 0 .988-.008 1.14-.026l-.172-1.493-.08.004-.232.006c-.186.003-.42.006-.656.006V37.1Zm1.14-.026a1.618 1.618 0 0 0 1.033-.508L32.85 35.53c-.03.03-.042.036-.042.036-.002 0-.02.01-.075.016l.172 1.493Zm1.033-.508a1.666 1.666 0 0 0-.505-2.676l-.644 1.358c.078.037.106.09.114.13.008.042 0 .095-.053.15l1.088 1.038Zm-.506-2.676-.146-.07-.643 1.36.146.068.643-1.358Zm-.465-.142-1.167-.004-.006 1.503 1.168.004.005-1.503Zm-1.167-.004c-.45-.002-.755-.001-.957.003-.1.002-.185.004-.254.01-.045.002-.161.01-.275.047l.459 1.43c-.081.026-.136.025-.08.022.03-.003.086-.005.178-.007.183-.003.472-.004.924-.002l.005-1.503Zm.552 1.998c-.002-.003-.056-.062-.093-.163a.57.57 0 0 1-.035-.157v-.012h1.503c0-.073-.004-.206-.06-.355a.986.986 0 0 0-.194-.315l-1.12 1.002Zm-.128-.332c0 .024-.005-.077.047-.2.05-.117.122-.18.1-.158l1.062 1.063c.04-.04.15-.149.22-.316a.973.973 0 0 0 .074-.389h-1.503Zm.147-.358-.074.073 1.063 1.063.073-.074-1.062-1.062Zm.457-.147h-1.063v1.503h1.063v-1.503Zm-1.063 0H30.7v1.503h1.064v-1.503Zm-.533.22-.073-.073-1.063 1.063.074.073 1.062-1.063Zm-.073-.073c-.02-.02.05.041.098.155.053.122.048.222.048.206h-1.502c0 .065.001.22.075.39.07.164.177.27.218.311l1.063-1.062Zm.146.361c0 .08-.02.163-.066.24a.54.54 0 0 1-.261.222l-.571-1.39c-.423.174-.604.588-.604.928h1.502Zm-.327.462c-.074.03-.137.042-.145.043a.63.63 0 0 1-.042.007l-.017.001.045-.002a46.143 46.143 0 0 1 .972-.007l.006-1.503a47.107 47.107 0 0 0-1.03.008 2.934 2.934 0 0 0-.154.01.824.824 0 0 0-.055.008c-.01.003-.076.014-.152.045l.572 1.39Zm.813.042 1.055.005.007-1.503-1.056-.005-.006 1.503Zm.498-.246.063.07 1.12-1-.062-.072-1.121 1.002Z" fill="#2D2C2C" mask="url(#a)"/><rect x="22.45" y="5.166" width="18.786" height="32.5" rx="3.1" stroke="#2D2C2C" stroke-width=".564"/></svg>