<?xml version="1.0" encoding="UTF-8" standalone="no"?>
<!-- Created with Inkscape (http://www.inkscape.org/) -->

<svg
   width="62"
   height="43"
   viewBox="0 0 16.404166 11.377083"
   version="1.1"
   id="svg5"
   xml:space="preserve"
   inkscape:version="1.2.2 (732a01da63, 2022-12-09)"
   sodipodi:docname="dibujo.svg"
   xmlns:inkscape="http://www.inkscape.org/namespaces/inkscape"
   xmlns:sodipodi="http://sodipodi.sourceforge.net/DTD/sodipodi-0.dtd"
   xmlns="http://www.w3.org/2000/svg"
   xmlns:svg="http://www.w3.org/2000/svg"><sodipodi:namedview
     id="namedview7"
     pagecolor="#ffffff"
     bordercolor="#000000"
     borderopacity="0.25"
     inkscape:showpageshadow="2"
     inkscape:pageopacity="0.0"
     inkscape:pagecheckerboard="0"
     inkscape:deskcolor="#d1d1d1"
     inkscape:document-units="mm"
     showgrid="false"
     inkscape:zoom="5.3720275"
     inkscape:cx="20.47644"
     inkscape:cy="23.640981"
     inkscape:window-width="1920"
     inkscape:window-height="1027"
     inkscape:window-x="1358"
     inkscape:window-y="22"
     inkscape:window-maximized="1"
     inkscape:current-layer="layer1" /><defs
     id="defs2" /><g
     inkscape:label="Capa 1"
     inkscape:groupmode="layer"
     id="layer1"><g
       style="fill:none"
       id="g214"
       transform="matrix(0.26458333,0,0,0.26458333,3.8574659,1.2392017)"><circle
         cx="22.1481"
         cy="25.0399"
         r="7.9522901"
         fill="#ffffff"
         id="circle196" /><path
         d="m 20.5708,21.3594 v 2.0373 l -2.366,0.3944 0.2629,2.6288 2.1031,0.2629 v 2.3003 h 3.0232 v -2.3003 l 2.2345,-0.2629 V 23.7911 L 23.9226,23.3967 23.594,21.3594 Z"
         fill="#34bbda"
         stroke="#000000"
         stroke-width="0.131443"
         id="path198" /><path
         d="M 2.10305,9.33253 0.7229,11.9614 v 0.3943 l 1.90592,-0.3943 2.62886,0.3943 2.43169,1.8402 2.82603,-2.0373 3.1546,0.1971 2.8918,1.3802 3.4832,-1.7745 2.826,0.3943 2.0374,1.8402 1.3144,-1.2487 3.4833,-0.9858 2.4316,0.3943 L 29.3117,7.55806 24.3826,4.14054 18.9277,2.23462 H 13.9329 L 7.42649,4.86348 Z"
         fill="#ffffff"
         stroke="#000000"
         stroke-width="0.131443"
         id="path200" /><path
         fill-rule="evenodd"
         clip-rule="evenodd"
         d="M 16.1394,0.0891182 C 15.9679,0.219181 15.8954,0.545225 15.8954,1.18634 V 1.75332 L 15.2218,1.79985 C 10.9376,2.09559 6.96065,3.86383 3.90907,6.82958 2.44775,8.24988 1.30558,9.77613 0.434181,11.4733 c -0.5073699,0.9881 -0.540954,1.185 -0.251254,1.4747 0.255985,0.256 0.487982,0.2485 1.118583,-0.0362 0.74968,-0.3386 1.25258,-0.4511 2.00825,-0.4496 0.80114,0.0015 1.46742,0.1697 2.23078,0.5629 0.42771,0.2202 0.66438,0.4092 1.23103,0.9825 0.92936,0.9403 0.88796,0.9403 1.81733,0 0.5696,-0.5764 0.80035,-0.7602 1.22728,-0.9777 0.67842,-0.3455 1.06122,-0.4656 1.70872,-0.5359 1.457,-0.158 2.7751,0.3054 3.8268,1.3453 l 0.5437,0.5377 v 2.3441 2.3442 l -0.3849,0.4714 c -0.9245,1.1322 -1.5227,2.386 -1.8241,3.8231 -0.1495,0.7125 -0.1696,2.5874 -0.0347,3.2203 0.2315,1.0847 0.6949,2.2529 1.2112,3.0522 0.1869,0.2895 0.2197,0.3875 0.1716,0.5139 -0.1931,0.5079 -0.8223,0.937 -1.3701,0.9344 -0.3292,-0.0016 -0.8052,-0.1899 -1.045,-0.4134 -0.243,-0.2265 -0.3886,-0.5716 -0.4608,-1.0931 -0.0788,-0.5683 -0.2796,-0.8709 -0.7361,-1.1088 -0.5888,-0.307 -1.3511,-0.0569 -1.6662,0.5465 -0.17094,0.3274 -0.17429,1.0722 -0.00736,1.65 0.86656,3.0001 4.59726,3.9717 6.77576,1.7647 l 0.4652,-0.4713 0.6011,0.3776 c 3.1915,2.005 7.3613,1.6637 10.2204,-0.8366 1.396,-1.2208 2.331,-2.8171 2.7448,-4.6861 0.1592,-0.719 0.1576,-0.7636 -0.0348,-0.9559 -0.3542,-0.3542 -0.7615,-0.1082 -0.8864,0.5355 -0.6378,3.2847 -3.2267,5.7385 -6.5409,6.1995 -1.8356,0.2553 -3.8785,-0.2681 -5.4127,-1.3866 -3.063,-2.2331 -4.0328,-6.2925 -2.3054,-9.6502 0.5197,-1.0101 1.3077,-1.9457 2.2282,-2.6453 0.6073,-0.4617 1.8782,-1.0675 2.596,-1.2375 0.9904,-0.2346 1.1069,-0.2789 1.2075,-0.4593 0.1228,-0.2201 0.0543,-0.4881 -0.1606,-0.6289 -0.1477,-0.0968 -0.2209,-0.1 -0.6397,-0.0277 -1.0138,0.1748 -2.2606,0.6758 -3.2168,1.2924 l -0.4436,0.2862 v -1.8706 -1.8705 l 0.5093,-0.515 c 1.0454,-1.0568 2.3943,-1.5398 3.8611,-1.3824 0.6473,0.0694 1.0301,0.1899 1.7088,0.5378 0.4232,0.2169 0.6629,0.4076 1.2286,0.9776 0.7296,0.7351 0.8424,0.7959 1.1836,0.6385 0.083,-0.0382 0.2396,-0.1895 0.3481,-0.3361 0.8304,-1.1226 2.2968,-1.8466 3.7461,-1.8494 0.7557,-0.0015 1.2586,0.111 2.0083,0.4496 0.6306,0.2847 0.8626,0.2922 1.1185,0.0362 C 32.9302,12.6772 32.9076,12.4605 32.53,11.7095 31.5848,9.8291 30.4869,8.33959 28.9333,6.82958 25.8815,3.86363 21.9051,2.09566 17.6206,1.79985 L 16.947,1.75332 V 1.18634 C 16.947,0.310731 16.8092,0 16.4212,0 16.3308,0 16.204,0.04009 16.1394,0.0891182 Z M 15.8954,7.84688 V 12.9377 L 15.4615,12.6093 C 13.7737,11.3318 11.5284,11.1065 9.61901,12.023 9.32984,12.1618 8.99801,12.3392 8.88162,12.4171 L 8.67006,12.559 8.77114,12.2187 C 9.15049,10.9413 9.81033,9.26593 10.4014,8.07953 11.8912,5.08947 13.5484,3.37788 15.4354,2.88031 15.6703,2.81833 15.87,2.76503 15.879,2.76188 c 0.009,-0.00316 0.0164,2.28507 0.0164,5.085 z m 2.3428,-4.66005 c 2.1432,1.02637 4.0218,3.76709 5.5003,8.02437 0.1274,0.3669 0.2772,0.8203 0.3327,1.0075 l 0.1011,0.3403 -0.2116,-0.1394 c -2.0249,-1.3331 -4.6703,-1.2557 -6.5838,0.1926 L 16.947,12.9377 V 7.85568 2.77371 l 0.4107,0.09404 c 0.226,0.05173 0.6222,0.19533 0.8805,0.31908 z M 12.4845,3.45892 C 10.6759,5.04097 8.92999,8.24127 7.8049,12.0366 7.61964,12.6616 7.45599,13.1859 7.44133,13.2017 7.42661,13.2175 7.28952,13.1095 7.13665,12.9617 6.48397,12.3306 5.3048,11.7398 4.35354,11.5673 4.14047,11.5287 3.67057,11.4949 3.3093,11.4922 2.73134,11.488 2.42567,11.5305 1.5151,11.7415 1.37702,11.7735 1.39404,11.7244 1.7049,11.1933 4.00949,7.25532 7.92031,4.33755 12.3793,3.22935 12.8342,3.11631 12.8462,3.14247 12.4845,3.45892 Z m 7.933,-0.23561 c 2.7953,0.66056 5.5634,2.17308 7.7718,4.24652 1.0375,0.97413 2.194,2.43479 2.9482,3.72347 0.3108,0.5311 0.3278,0.5802 0.1898,0.5482 -0.9135,-0.2117 -1.2158,-0.2535 -1.8024,-0.2492 -0.742,0.0054 -1.1692,0.0713 -1.7996,0.2775 -0.7367,0.2409 -1.489,0.6858 -2.0196,1.1943 -0.1529,0.1465 -0.2902,0.2534 -0.3053,0.2376 -0.0149,-0.0158 -0.166,-0.502 -0.3355,-1.0803 -1.1182,-3.81487 -2.8874,-7.07077 -4.707,-8.66248 -0.3866,-0.33827 -0.386,-0.3409 0.0596,-0.23561 z m 2.54,13.42989 c -0.3685,0.3685 -0.1099,0.7627 0.579,0.8827 0.9442,0.1645 2.0901,0.6502 2.9721,1.26 0.5409,0.3738 1.342,1.1577 1.7763,1.7378 0.5945,0.7942 1.1014,1.9413 1.3151,2.9757 0.0559,0.2707 0.1309,0.5468 0.1665,0.6135 0.1733,0.3236 0.6522,0.3125 0.8237,-0.019 0.0944,-0.1825 0.0913,-0.25 -0.0396,-0.8654 -0.7048,-3.3146 -3.3533,-5.9434 -6.6963,-6.6467 -0.6317,-0.1329 -0.7078,-0.1276 -0.8968,0.0614 z m -2.4711,4.1427 c -0.2563,0.1419 -0.3191,0.4156 -0.3191,1.3907 V 23.064 H 19.278 c -1.0852,0 -1.3015,0.0673 -1.4113,0.4385 -0.0487,0.1643 -0.0672,0.747 -0.0535,1.6797 l 0.021,1.4281 0.1821,0.182 c 0.1803,0.1803 0.192,0.1823 1.1619,0.2045 l 0.9798,0.0224 0.0211,0.9785 c 0.0209,0.9697 0.0227,0.9803 0.2033,1.1607 l 0.1822,0.182 h 1.5743 1.5744 l 0.1822,-0.1821 c 0.1804,-0.1803 0.1824,-0.1918 0.2046,-1.1606 l 0.0223,-0.9786 0.9785,-0.0223 c 0.9688,-0.0222 0.9803,-0.0242 1.1607,-0.2046 L 26.4437,26.61 v -1.5743 -1.5744 l -0.182,-0.1822 c -0.1805,-0.1806 -0.191,-0.1824 -1.1607,-0.2033 l -0.9785,-0.021 -0.0224,-0.9799 C 24.0779,21.105 24.0759,21.0933 23.8956,20.913 l -0.1821,-0.1821 -1.5266,-0.0156 c -1.2394,-0.0127 -1.5594,0.0025 -1.7005,0.0806 z m 2.6384,1.8977 c 0,1.0033 0.0011,1.0108 0.1732,1.183 0.1722,0.1722 0.1796,0.1732 1.1848,0.1732 h 1.0114 l -0.0181,0.9694 -0.0182,0.9694 -1.033,0.0329 c -0.875,0.0278 -1.0509,0.0508 -1.1502,0.15 -0.0991,0.0992 -0.1221,0.2751 -0.1499,1.1501 l -0.0329,1.033 -0.9694,0.0182 -0.9694,0.0181 -0.0014,-1.0039 c -0.0021,-1.3898 0.0614,-1.3227 -1.2926,-1.3655 L 18.82,25.9886 18.8018,25.0192 18.7837,24.0498 h 1.0114 c 1.0052,0 1.0126,-0.001 1.1848,-0.1732 0.1721,-0.1722 0.1732,-0.1797 0.1732,-1.183 v -1.0097 h 0.9858 0.9859 z m -12.042,6.6961 c 0.0368,0.0452 0.0976,0.2821 0.1353,0.5265 0.0905,0.5889 0.2955,0.9891 0.7345,1.4344 0.4167,0.4228 0.91,0.6456 1.5487,0.6996 0.7374,0.0624 1.599,-0.3121 2.0718,-0.9005 l 0.2145,-0.2668 0.1854,0.1776 c 0.1019,0.0976 0.1853,0.2157 0.1853,0.2625 0,0.0466 -0.1654,0.2477 -0.3676,0.4466 -1.8322,1.8031 -4.9102,0.6625 -5.1767,-1.9184 -0.0265,-0.2564 -0.0101,-0.369 0.0645,-0.4436 0.1213,-0.1213 0.3132,-0.1298 0.4043,-0.0179 z"
         fill="#000000"
         id="path202" /></g></g></svg>
